<mxfile host="app.diagrams.net" modified="2025-01-28T09:20:04.429Z" agent="Mozilla/5.0 (Windows NT 10.0; Win64; x64) AppleWebKit/537.36 (KHTML, like Gecko) Chrome/131.0.0.0 Safari/537.36" version="24.6.5" etag="_oIBiAiujJucqPPiyPS4" type="github">
  <diagram name="第 1 页" id="Co5knskKBYVxGNMMXFAK">
    <mxGraphModel>
      <root>
        <mxCell id="0" />
        <mxCell id="1" parent="0" />
      </root>
    </mxGraphModel>
  </diagram>
</mxfile>
